<svg width="25" height="24" viewBox="0 0 25 24" fill="none" xmlns="http://www.w3.org/2000/svg">
<path fill-rule="evenodd" clip-rule="evenodd" d="M10.1487 20.7077C10.458 20.7362 10.7319 20.5085 10.7604 20.1992C10.7888 19.8898 10.5611 19.6159 10.2518 19.5875L6.25573 19.2197L11.4057 13.8909C11.6216 13.6675 11.6155 13.3114 11.3921 13.0955C11.1687 12.8796 10.8126 12.8857 10.5967 13.1091L5.51868 18.3635L5.27736 14.4615C5.25818 14.1514 4.99128 13.9156 4.68121 13.9348C4.37114 13.954 4.13533 14.2209 4.15451 14.5309L4.47453 19.7055C4.48236 19.8384 4.5371 19.9689 4.6383 20.0701C4.64056 20.0723 4.64284 20.0746 4.64515 20.0768C4.64668 20.0783 4.64823 20.0798 4.64978 20.0812C4.65641 20.0875 4.6632 20.0936 4.67014 20.0996C4.76267 20.1789 4.87461 20.2233 4.98879 20.2328L10.1487 20.7077Z" fill="#BDBDBD"/>
<path fill-rule="evenodd" clip-rule="evenodd" d="M15.0818 3.58572C14.7725 3.55724 14.4986 3.78494 14.4701 4.0943C14.4416 4.40365 14.6693 4.67751 14.9787 4.70598L18.9747 5.07376L13.8248 10.4026C13.6089 10.626 13.615 10.9821 13.8384 11.198C14.0618 11.4139 14.4179 11.4078 14.6338 11.1844L19.7118 5.92997L19.9531 9.83197C19.9723 10.142 20.2392 10.3779 20.5493 10.3587C20.8593 10.3395 21.0951 10.0726 21.076 9.76253L20.7559 4.58792C20.7481 4.45502 20.6934 4.32452 20.5922 4.22339C20.5899 4.22113 20.5876 4.21889 20.5853 4.21666C20.5838 4.21518 20.5822 4.2137 20.5807 4.21224C20.5741 4.20596 20.5673 4.19985 20.5603 4.1939C20.4678 4.11451 20.3559 4.07017 20.2417 4.06061L15.0818 3.58572Z" fill="#BDBDBD"/>
</svg>
