<svg width="18" height="18" viewBox="0 0 18 18" fill="none" xmlns="http://www.w3.org/2000/svg">
<path d="M14.25 5.25C14.25 8.1495 11.8995 10.5 9 10.5C6.1005 10.5 3.75 8.1495 3.75 5.25C3.75 2.35051 6.1005 0 9 0C11.8995 0 14.25 2.35051 14.25 5.25Z" fill="black"/>
<path d="M3.75 5.25H14.25V13.125H3.75V5.25Z" fill="black"/>
<path d="M2 13.125H16V14.875H2V13.125Z" fill="black"/>
<path d="M3.75 11.375L2 13.125H3.75V11.375Z" fill="black"/>
<path d="M14.25 11.375L16 13.125H14.25V11.375Z" fill="black"/>
<path d="M7.25 15.75C7.25 16.7165 8.0335 17.5 9 17.5C9.9665 17.5 10.75 16.7165 10.75 15.75H7.25Z" fill="black"/>
</svg>
