<svg width="40" height="40" viewBox="0 0 40 40" fill="none" xmlns="http://www.w3.org/2000/svg">
<path opacity="0.24" d="M39.4044 24.8385C36.7329 35.5529 25.8791 42.0729 15.1623 39.4016C4.45049 36.7304 -2.07087 25.8779 0.601305 15.1641C3.27161 4.4485 14.1247 -2.07275 24.8384 0.598497C35.5546 3.26975 42.0753 14.1235 39.4038 24.8385H39.4044Z" fill="#0056CA"/>
<path fill-rule="evenodd" clip-rule="evenodd" d="M26.0237 17.6765C26.2934 15.8711 24.9188 14.9006 23.0392 14.2532L23.6489 11.8076L22.1599 11.4366L21.5663 13.8177C21.1754 13.7202 20.7734 13.6282 20.374 13.537L20.9719 11.1402L19.4841 10.7692L18.874 13.214C18.55 13.1402 18.232 13.0673 17.9234 12.9905L17.9251 12.9829L15.8721 12.4703L15.4761 14.0602C15.4761 14.0602 16.5806 14.3134 16.5573 14.3291C17.1602 14.4796 17.2696 14.8786 17.2509 15.1948L16.5564 17.9809C16.598 17.9915 16.6518 18.0068 16.7112 18.0305L16.5543 17.9915L15.5804 21.8943C15.5066 22.0775 15.3196 22.3522 14.8982 22.2479C14.913 22.2696 13.8162 21.9779 13.8162 21.9779L13.0771 23.6823L15.0148 24.1652C15.2334 24.22 15.4494 24.2764 15.6631 24.3321L15.6634 24.3322C15.8018 24.3683 15.9392 24.4041 16.0756 24.4391L15.4596 26.9131L16.9465 27.2841L17.557 24.8368C17.9628 24.9471 18.3571 25.0488 18.7429 25.1446L18.1349 27.5805L19.6236 27.9515L20.2396 25.4826C22.7781 25.9629 24.6873 25.7692 25.4899 23.4737C26.1373 21.6251 25.4581 20.5588 24.1225 19.863C25.0952 19.6378 25.8278 18.998 26.0233 17.6765H26.0237ZM22.622 22.4459C22.1994 24.1426 19.5431 23.4406 18.3288 23.1197L18.3287 23.1196C18.22 23.0909 18.1229 23.0652 18.04 23.0446L18.8574 19.7676C18.9588 19.7929 19.0827 19.8207 19.2231 19.8522C20.4793 20.1341 23.0538 20.7118 22.6225 22.4459H22.622ZM19.4756 18.3315C20.4888 18.6018 22.6973 19.191 23.0821 17.6498C23.4754 16.073 21.3278 15.5977 20.279 15.3656C20.1611 15.3395 20.0571 15.3165 19.9721 15.2953L19.231 18.2675C19.3011 18.285 19.3834 18.3069 19.4756 18.3315Z" fill="#0056CA"/>
</svg>
