<svg width="41" height="41" viewBox="0 0 41 41" fill="none" xmlns="http://www.w3.org/2000/svg">
<path opacity="0.24" d="M40.1023 20.1057C40.1023 31.1515 31.1482 40.1059 20.1025 40.1059C9.05679 40.1059 0.102539 31.1515 0.102539 20.1057C0.102539 9.06011 9.05679 0.105858 20.1025 0.105858C31.1481 0.105858 40.1023 9.06011 40.1023 20.1057" fill="#0056CA"/>
<g opacity="0.8">
<path d="M19.9334 10.7692L19.8105 11.1869V23.3066L19.9334 23.4292L25.5593 20.1038L19.9334 10.7692Z" fill="#0056CA"/>
<path d="M19.9334 10.7692L14.3076 20.1038L19.9334 23.4293V17.5468V10.7692Z" fill="#0056CA"/>
<path d="M19.9335 25.2596L19.8643 25.3441V29.6614L19.9335 29.8636L25.5627 21.9359L19.9335 25.2596Z" fill="#0056CA"/>
<path d="M19.9334 29.8636V25.2596L14.3076 21.9359L19.9334 29.8636Z" fill="#0056CA"/>
<path d="M19.9336 23.4292L25.5593 20.1039L19.9336 17.5468V23.4292Z" fill="#0056CA"/>
<path d="M14.3076 20.1038L19.9334 23.4292V17.5468L14.3076 20.1038Z" fill="#0056CA"/>
</g>
</svg>
