<svg width="40" height="40" viewBox="0 0 40 40" fill="none" xmlns="http://www.w3.org/2000/svg">
<path opacity="0.24" d="M39.3978 24.8387C36.7266 35.5532 25.8745 42.0739 15.1586 39.402C4.44729 36.7308 -2.07338 25.878 0.59898 15.1644C3.269 4.44861 14.1211 -2.07256 24.8336 0.598631C35.5487 3.26982 42.069 14.1238 39.3975 24.8389L39.3977 24.8387H39.3978Z" fill="#0056CA"/>
<path d="M29.8344 8.33379H33.8704L25.4711 16.6502C22.4294 19.6603 17.4978 19.6603 14.4539 16.6502L6.05127 8.33379H10.0906L16.4719 14.6513C18.4065 16.558 21.5136 16.558 23.4482 14.6513L29.8344 8.33379Z" fill="#0056CA"/>
<path d="M10.0388 31.4588H6L14.4539 23.0911C17.4956 20.081 22.4272 20.081 25.4711 23.0911L33.925 31.4588H29.889L23.4531 25.09C21.5185 23.1833 18.4114 23.1833 16.4768 25.09L10.0388 31.4588Z" fill="#0056CA"/>
</svg>
