<svg width="182" height="42" viewBox="0 0 182 42" fill="none" xmlns="http://www.w3.org/2000/svg">
<path d="M3 39.8861L1 40.8223H181V3.76102L179 2.75319C177 1.74535 173 -0.27033 169 2.84993C165 5.97019 161 14.2264 157 19.4705C153 24.7146 149 26.9467 145 24.51C141 22.0734 137 14.968 133 12.2815C129 9.59496 125 11.3273 121 12.2744C117 13.2216 113 13.3836 109 12.5C105 11.6164 101 9.68716 97 13.1832C93 16.6792 89 25.6004 85 27.2353C81 28.8703 77 23.2189 73 21.8041C69 20.3892 65 23.2107 61 26.2101C57 29.2095 53 32.3868 49 34.8545C45 37.3222 41 37.0804 37 38.1445C33 39.2086 29 39.5788 25 38.6399C21 37.701 17 37.453 13 37.2652C9 37.0774 5 38.9499 3 39.8861Z" fill="url(#paint0_linear_1935_3906)" fill-opacity="0.16"/>
<path d="M1 40.8223L3 39.8861C5 38.9499 9 37.0774 13 37.2652C17 37.453 21 37.701 25 38.6399C29 39.5788 33 39.2086 37 38.1445C41 37.0804 45 37.3222 49 34.8545C53 32.3868 57 29.2095 61 26.2101C65 23.2107 69 20.3892 73 21.8041C77 23.2189 81 28.8703 85 27.2353C89 25.6004 93 16.6792 97 13.1832C101 9.68716 105 11.6164 109 12.5C113 13.3836 117 13.2216 121 12.2744C125 11.3273 129 9.59496 133 12.2815C137 14.968 141 22.0734 145 24.51C149 26.9467 153 24.7146 157 19.4705C161 14.2264 165 5.97019 169 2.84993C173 -0.27033 177 1.74535 179 2.75319L181 3.76102" stroke="#0056CA"/>
<defs>
<linearGradient id="paint0_linear_1935_3906" x1="110.5" y1="1.17766" x2="110" y2="41.1777" gradientUnits="userSpaceOnUse">
<stop stop-color="#0056CA"/>
<stop offset="0.497259" stop-color="#0056CA" stop-opacity="0"/>
</linearGradient>
</defs>
</svg>
