<svg width="182" height="42" viewBox="0 0 182 42" fill="none" xmlns="http://www.w3.org/2000/svg">
<path d="M2.66667 23.1704L1 22.4228V41H181V8.01937L179.333 7.41993C177.667 6.82048 174.333 5.62158 171 5.49573C167.667 5.36988 164.333 6.31708 161 8.2911C157.667 10.2651 154.333 13.266 151 11.466C147.667 9.66594 144.333 3.06504 141 1.42316C137.667 -0.218709 134.333 3.09845 131 8.24163C127.667 13.3848 124.333 20.354 121 23.8992C117.667 27.4444 114.333 27.5656 111 25.7027C107.667 23.8397 104.333 19.9927 101 17.4114C97.6667 14.8302 94.3333 13.5146 91 13.5615C87.6667 13.6085 84.3333 15.018 81 15.8879C77.6667 16.7577 74.3333 17.0881 71 16.5909C67.6667 16.0936 64.3333 14.7689 61 14.2666C57.6667 13.7644 54.3333 14.0846 51 17.3631C47.6667 20.6416 44.3333 26.8783 41 31.5039C37.6667 36.1295 34.3333 39.1439 31 40.3731C27.6667 41.6024 24.3333 41.0465 21 38.5049C17.6667 35.9633 14.3333 31.4361 11 28.4248C7.66667 25.4135 4.33333 23.9181 2.66667 23.1704Z" fill="url(#paint0_linear_1935_3934)" fill-opacity="0.16"/>
<path d="M1 22.4228L2.66667 23.1704C4.33333 23.9181 7.66667 25.4135 11 28.4248C14.3333 31.4361 17.6667 35.9633 21 38.5049C24.3333 41.0465 27.6667 41.6024 31 40.3731C34.3333 39.1439 37.6667 36.1295 41 31.5039C44.3333 26.8783 47.6667 20.6416 51 17.3631C54.3333 14.0846 57.6667 13.7644 61 14.2666C64.3333 14.7689 67.6667 16.0936 71 16.5909C74.3333 17.0881 77.6667 16.7577 81 15.8879C84.3333 15.018 87.6667 13.6085 91 13.5615C94.3333 13.5146 97.6667 14.8302 101 17.4114C104.333 19.9927 107.667 23.8397 111 25.7027C114.333 27.5656 117.667 27.4444 121 23.8992C124.333 20.354 127.667 13.3848 131 8.24163C134.333 3.09845 137.667 -0.218709 141 1.42316C144.333 3.06504 147.667 9.66594 151 11.466C154.333 13.266 157.667 10.2651 161 8.2911C164.333 6.31708 167.667 5.36988 171 5.49573C174.333 5.62158 177.667 6.82048 179.333 7.41993L181 8.01937" stroke="#0056CA"/>
<defs>
<linearGradient id="paint0_linear_1935_3934" x1="103.5" y1="0.999998" x2="104" y2="41" gradientUnits="userSpaceOnUse">
<stop stop-color="#0056CA"/>
<stop offset="0.502936" stop-color="#0056CA" stop-opacity="0"/>
</linearGradient>
</defs>
</svg>
