<svg width="182" height="42" viewBox="0 0 182 42" fill="none" xmlns="http://www.w3.org/2000/svg">
<path opacity="0.16" d="M1 26.0297L2.66667 29.6049C4.33333 33.18 7.66667 40.3304 11 40.9539H12.0207C15.0138 40.4323 18.0069 35.6592 21 35.5285C24.3333 35.3829 27.6667 40.9949 31 40.4118C34.3333 39.8287 37.6667 33.0503 41 30.7048C44.3333 28.3593 47.6667 30.4467 51 27.8911C54.3333 25.3356 57.6667 18.1372 61 17.2628C64.3333 16.3884 67.6667 16.0078 71 20.0674C74.3333 24.1269 77.6667 26.7964 81 27.1179C84.3333 27.4393 87.6667 25.4127 91 25.0041C94.3333 24.5955 97.6667 25.8049 101 26.6428C104.333 27.4806 107.667 27.9468 111 25.6015C114.333 23.2562 117.667 18.0996 121 12.562C124.333 7.02437 127.667 6.93598 131 4.78432C134.333 2.63267 137.667 4.24786 141 4.85677C144.333 5.46568 147.667 5.06832 151 3.93402C154.333 2.79973 157.667 0.9285 161 1.00211C164.333 1.07572 167.667 3.09416 171 4.47927C174.333 5.86438 177.667 6.61615 179.333 6.99204L181 7.36792V40.9539H12.0207C11.6805 41.0132 11.3402 41.0175 11 40.9539H1V26.0297Z" fill="url(#paint0_linear_1935_3922)"/>
<path d="M1 26.0297L2.66667 29.6049C4.33333 33.18 7.66667 40.3304 11 40.9539C14.3333 41.5774 17.6667 35.6741 21 35.5285C24.3333 35.3829 27.6667 40.995 31 40.4118C34.3333 39.8287 37.6667 33.0503 41 30.7048C44.3333 28.3593 47.6667 30.4467 51 27.8911C54.3333 25.3356 57.6667 18.1372 61 17.2628C64.3333 16.3884 67.6667 16.0078 71 20.0674C74.3333 24.1269 77.6667 26.7964 81 27.1179C84.3333 27.4393 87.6667 25.4127 91 25.0041C94.3333 24.5955 97.6667 25.8049 101 26.6428C104.333 27.4806 107.667 27.9468 111 25.6015C114.333 23.2562 117.667 18.0996 121 12.562C124.333 7.02437 127.667 6.93598 131 4.78432C134.333 2.63267 137.667 4.24786 141 4.85677C144.333 5.46568 147.667 5.06832 151 3.93402C154.333 2.79973 157.667 0.9285 161 1.00211C164.333 1.07572 167.667 3.09416 171 4.47927C174.333 5.86438 177.667 6.61615 179.333 6.99204L181 7.36792" stroke="#0056CA"/>
<defs>
<linearGradient id="paint0_linear_1935_3922" x1="98.5" y1="1" x2="99" y2="41" gradientUnits="userSpaceOnUse">
<stop stop-color="#0056CA"/>
<stop offset="0.501108" stop-color="#0056CA" stop-opacity="0"/>
</linearGradient>
</defs>
</svg>
