<svg width="23" height="22" viewBox="0 0 23 22" fill="none" xmlns="http://www.w3.org/2000/svg">
<path d="M21.3391 10.7216C21.3091 10.6537 20.5812 9.03891 18.963 7.4207C16.8068 5.26453 14.0834 4.125 11.0859 4.125C8.08843 4.125 5.36507 5.26453 3.2089 7.4207C1.59069 9.03891 0.859367 10.6562 0.832726 10.7216C0.793636 10.8095 0.773438 10.9046 0.773438 11.0009C0.773438 11.0971 0.793636 11.1922 0.832726 11.2802C0.862804 11.348 1.59069 12.962 3.2089 14.5802C5.36507 16.7355 8.08843 17.875 11.0859 17.875C14.0834 17.875 16.8068 16.7355 18.963 14.5802C20.5812 12.962 21.3091 11.348 21.3391 11.2802C21.3782 11.1922 21.3984 11.0971 21.3984 11.0009C21.3984 10.9046 21.3782 10.8095 21.3391 10.7216ZM11.0859 14.4375C10.4061 14.4375 9.74145 14.2359 9.17616 13.8582C8.61086 13.4805 8.17027 12.9436 7.91009 12.3155C7.64992 11.6874 7.58184 10.9962 7.71448 10.3294C7.84712 9.66257 8.17451 9.05006 8.65525 8.56932C9.13599 8.08858 9.7485 7.76119 10.4153 7.62855C11.0821 7.49591 11.7733 7.56399 12.4014 7.82416C13.0295 8.08434 13.5664 8.52493 13.9441 9.09023C14.3218 9.65552 14.5234 10.3201 14.5234 11C14.5234 11.9117 14.1613 12.786 13.5166 13.4307C12.872 14.0753 11.9976 14.4375 11.0859 14.4375Z" fill="#BDBDBD"/>
</svg>
