<svg width="24" height="24" viewBox="0 0 24 24" fill="none" xmlns="http://www.w3.org/2000/svg">
<rect width="24" height="24" fill="white"/>
<path d="M8.00001 8C8.00001 8 7.96402 3 11.982 3C16 3 16 8 16 8" stroke="#BDBDBD" stroke-width="1.5" stroke-linecap="round" stroke-linejoin="round"/>
<path fill-rule="evenodd" clip-rule="evenodd" d="M7 8C5.89543 8 5 8.89543 5 10V18C5 19.1046 5.89543 20 7 20H17C18.1046 20 19 19.1046 19 18V10C19 8.89543 18.1046 8 17 8H7ZM12 16C13.1046 16 14 15.1046 14 14C14 12.8954 13.1046 12 12 12C10.8954 12 10 12.8954 10 14C10 15.1046 10.8954 16 12 16Z" fill="#BDBDBD"/>
</svg>
