<svg width="314" height="42" viewBox="0 0 314 42" fill="none" xmlns="http://www.w3.org/2000/svg">
<path d="M4.46667 40.0554L1 41H313V3.60652L309.533 2.58965C306.067 1.57278 299.133 -0.460966 292.2 2.68726C285.267 5.83549 278.333 14.1657 271.4 19.4568C264.467 24.7479 257.533 27 250.6 24.5415C243.667 22.083 236.733 14.9139 229.8 12.2033C222.867 9.49274 215.933 11.2406 209 12.1962C202.067 13.1519 195.133 13.3153 188.2 12.4238C181.267 11.5323 174.333 9.58577 167.4 13.1131C160.467 16.6404 153.533 25.6416 146.6 27.2912C139.667 28.9408 132.733 23.2388 125.8 21.8113C118.867 20.3837 111.933 23.2305 105 26.2568C98.0667 29.2831 91.1333 32.4888 84.2 34.9787C77.2667 37.4685 70.3333 37.2245 63.4 38.2982C56.4667 39.3718 49.5333 39.7453 42.6 38.798C35.6667 37.8506 28.7333 37.6004 21.8 37.411C14.8667 37.2215 7.93333 39.1108 4.46667 40.0554Z" fill="url(#paint0_linear_1895_8622)" fill-opacity="0.16"/>
<path d="M1 41L4.46667 40.0554C7.93333 39.1108 14.8667 37.2215 21.8 37.411C28.7333 37.6004 35.6667 37.8506 42.6 38.798C49.5333 39.7453 56.4667 39.3718 63.4 38.2982C70.3333 37.2245 77.2667 37.4685 84.2 34.9787C91.1333 32.4888 98.0667 29.2831 105 26.2568C111.933 23.2305 118.867 20.3837 125.8 21.8113C132.733 23.2388 139.667 28.9408 146.6 27.2912C153.533 25.6416 160.467 16.6404 167.4 13.1131C174.333 9.58577 181.267 11.5323 188.2 12.4238C195.133 13.3153 202.067 13.1519 209 12.1962C215.933 11.2406 222.867 9.49274 229.8 12.2033C236.733 14.9139 243.667 22.083 250.6 24.5415C257.533 27 264.467 24.7479 271.4 19.4568C278.333 14.1657 285.267 5.83549 292.2 2.68726C299.133 -0.460966 306.067 1.57278 309.533 2.58965L313 3.60652" stroke="#0056CA"/>
<defs>
<linearGradient id="paint0_linear_1895_8622" x1="190.8" y1="1" x2="190.506" y2="41.3627" gradientUnits="userSpaceOnUse">
<stop stop-color="#0056CA"/>
<stop offset="0.497259" stop-color="#0056CA" stop-opacity="0"/>
</linearGradient>
</defs>
</svg>
