<svg width="313" height="42" viewBox="0 0 313 42" fill="none" xmlns="http://www.w3.org/2000/svg">
<path opacity="0.16" d="M0 26.0297L2.87963 29.6049C5.75926 33.18 11.5185 40.3304 17.2778 40.9539H19.0413C24.2127 40.4323 29.3841 35.6592 34.5556 35.5285C40.3148 35.3829 46.0741 40.9949 51.8333 40.4118C57.5926 39.8287 63.3519 33.0503 69.1111 30.7048C74.8704 28.3593 80.6296 30.4467 86.3889 27.8911C92.1482 25.3356 97.9074 18.1372 103.667 17.2628C109.426 16.3884 115.185 16.0078 120.944 20.0674C126.704 24.1269 132.463 26.7964 138.222 27.1179C143.981 27.4393 149.741 25.4127 155.5 25.0041C161.259 24.5955 167.019 25.8049 172.778 26.6428C178.537 27.4806 184.296 27.9468 190.056 25.6015C195.815 23.2562 201.574 18.0996 207.333 12.562C213.093 7.02437 218.852 6.93598 224.611 4.78432C230.37 2.63267 236.13 4.24786 241.889 4.85677C247.648 5.46568 253.407 5.06832 259.167 3.93402C264.926 2.79973 270.685 0.9285 276.444 1.00211C282.204 1.07572 287.963 3.09416 293.722 4.47927C299.482 5.86438 305.241 6.61615 308.12 6.99204L311 7.36792V40.9539H19.0413C18.4535 41.0132 17.8656 41.0175 17.2778 40.9539H0V26.0297Z" fill="url(#paint0_linear_1895_8638)"/>
<path d="M1 26.0297L3.87963 29.6049C6.75926 33.18 12.5185 40.3304 18.2778 40.9539C24.037 41.5774 29.7963 35.6741 35.5556 35.5285C41.3148 35.3829 47.0741 40.995 52.8333 40.4118C58.5926 39.8287 64.3519 33.0503 70.1111 30.7048C75.8704 28.3593 81.6296 30.4467 87.3889 27.8911C93.1482 25.3356 98.9074 18.1372 104.667 17.2628C110.426 16.3884 116.185 16.0078 121.944 20.0674C127.704 24.1269 133.463 26.7964 139.222 27.1179C144.981 27.4393 150.741 25.4127 156.5 25.0041C162.259 24.5955 168.019 25.8049 173.778 26.6428C179.537 27.4806 185.296 27.9468 191.056 25.6015C196.815 23.2562 202.574 18.0996 208.333 12.562C214.093 7.02437 219.852 6.93598 225.611 4.78432C231.37 2.63267 237.13 4.24786 242.889 4.85677C248.648 5.46568 254.407 5.06832 260.167 3.93402C265.926 2.79973 271.685 0.9285 277.444 1.00211C283.204 1.07572 288.963 3.09416 294.722 4.47927C300.482 5.86438 306.241 6.61615 309.12 6.99204L312 7.36792" stroke="#0056CA"/>
<defs>
<linearGradient id="paint0_linear_1895_8638" x1="168.458" y1="1" x2="168.748" y2="41.0042" gradientUnits="userSpaceOnUse">
<stop stop-color="#0056CA"/>
<stop offset="0.501108" stop-color="#0056CA" stop-opacity="0"/>
</linearGradient>
</defs>
</svg>
