<svg width="314" height="42" viewBox="0 0 314 42" fill="none" xmlns="http://www.w3.org/2000/svg">
<path d="M3.88889 23.1704L1 22.4228V41H313V8.01937L310.111 7.41993C307.222 6.82048 301.444 5.62158 295.667 5.49573C289.889 5.36988 284.111 6.31708 278.333 8.2911C272.556 10.2651 266.778 13.266 261 11.466C255.222 9.66594 249.444 3.06504 243.667 1.42316C237.889 -0.218709 232.111 3.09845 226.333 8.24163C220.556 13.3848 214.778 20.354 209 23.8992C203.222 27.4444 197.444 27.5656 191.667 25.7027C185.889 23.8397 180.111 19.9927 174.333 17.4114C168.556 14.8302 162.778 13.5146 157 13.5615C151.222 13.6085 145.444 15.018 139.667 15.8879C133.889 16.7577 128.111 17.0881 122.333 16.5909C116.556 16.0936 110.778 14.7689 105 14.2666C99.2222 13.7644 93.4445 14.0846 87.6667 17.3631C81.8889 20.6416 76.1111 26.8783 70.3333 31.5039C64.5556 36.1295 58.7778 39.1439 53 40.3731C47.2222 41.6024 41.4444 41.0465 35.6667 38.5049C29.8889 35.9633 24.1111 31.4361 18.3333 28.4248C12.5556 25.4135 6.77778 23.9181 3.88889 23.1704Z" fill="url(#paint0_linear_1895_8650)" fill-opacity="0.16"/>
<path d="M1 22.4228L3.88889 23.1704C6.77778 23.9181 12.5556 25.4135 18.3333 28.4248C24.1111 31.4361 29.8889 35.9633 35.6667 38.5049C41.4444 41.0465 47.2222 41.6024 53 40.3731C58.7778 39.1439 64.5556 36.1295 70.3333 31.5039C76.1111 26.8783 81.8889 20.6416 87.6667 17.3631C93.4445 14.0846 99.2222 13.7644 105 14.2666C110.778 14.7689 116.556 16.0936 122.333 16.5909C128.111 17.0881 133.889 16.7577 139.667 15.8879C145.444 15.018 151.222 13.6085 157 13.5615C162.778 13.5146 168.556 14.8302 174.333 17.4114C180.111 19.9927 185.889 23.8397 191.667 25.7027C197.444 27.5656 203.222 27.4444 209 23.8992C214.778 20.354 220.556 13.3848 226.333 8.24163C232.111 3.09845 237.889 -0.218709 243.667 1.42316C249.444 3.06504 255.222 9.66594 261 11.466C266.778 13.266 272.556 10.2651 278.333 8.2911C284.111 6.31708 289.889 5.36988 295.667 5.49573C301.444 5.62158 307.222 6.82048 310.111 7.41993L313 8.01937" stroke="#0056CA"/>
<defs>
<linearGradient id="paint0_linear_1895_8650" x1="178.667" y1="0.999998" x2="178.955" y2="41.0042" gradientUnits="userSpaceOnUse">
<stop stop-color="#0056CA"/>
<stop offset="0.502936" stop-color="#0056CA" stop-opacity="0"/>
</linearGradient>
</defs>
</svg>
